<svg width="49" height="48" viewBox="0 0 49 48" fill="none" xmlns="http://www.w3.org/2000/svg">
<path d="M24.5 0C37.7548 0 48.5 10.7452 48.5 24C48.5 37.2548 37.7548 48 24.5 48C11.2452 48 0.5 37.2548 0.5 24C0.5 10.7452 11.2452 0 24.5 0ZM24.5 3C12.902 3 3.5 12.402 3.5 24C3.5 35.598 12.902 45 24.5 45C36.098 45 45.5 35.598 45.5 24C45.5 12.402 36.098 3 24.5 3ZM33.4393 16.9393C34.0251 16.3536 34.9749 16.3536 35.5607 16.9393C36.1464 17.5251 36.1464 18.4749 35.5607 19.0607L21.5607 33.0607C20.9749 33.6464 20.0251 33.6464 19.4393 33.0607L12.4393 26.0607C11.8536 25.4749 11.8536 24.5251 12.4393 23.9393C13.0251 23.3536 13.9749 23.3536 14.5607 23.9393L20.5 29.8787L33.4393 16.9393Z" fill="#3F8AE0"/>
</svg>
